{"title":"Badehotellet  S01E01 - En sommer ved Vesterhavet_(Jaws-720p-DC)","uid":9479292,"size":3270778880,"categoryP":"video","categoryS":"hd___tv_shows","magnet":"?xt=urn:btih:f60a004b84e4f6a1dfe845d684313bd77f10f694&amp;dn=Badehotellet++S01E01+-+En+sommer+ved+Vesterhavet_%28Jaws-720p-DC%29&amp;tr=udp%3A%2F%2Ftracker.openbittorrent.com%3A80&amp;tr=udp%3A%2F%2Fopen.demonii.com%3A1337&amp;tr=udp%3A%2F%2Ftracker.coppersurfer.tk%3A6969&amp;tr=udp%3A%2F%2Fexodus.desync.com%3A6969","seeders":1,"leechers":1,"uploader":"Jaws_dk","files":1,"time":1389761905,"description":"TV2 Comedy/Drama, Badehotellet - En sommer ved Vesterhavet - Season 1 - Episode 1\n\n\nDigital TV-Rip: JawsDK(2014)\nTS-Stream Edit: JawsDK(2014)\n\nLanguage      : Dansk/Danish\nSubtitles     : Nej/None\n\n\nFile Info:\n\n\nGeneral\nID                                       : 0 (0x0)\nComplete name                            : TV2 HD_Badehotellet  S01E01 - En sommer ved Vesterhavet_(Jaws-720p-DC).ts\nFormat                                   : MPEG-TS\nFile size                                : 3.05 GiB\nDuration                                 : 49mn 42s\nOverall bit rate mode                    : Variable\nOverall bit rate                         : 8 773 Kbps\n\nVideo\nID                                       : 512 (0x200)\nMenu ID                                  : 1 (0x1)\nFormat                                   : AVC\nFormat/Info                              : Advanced Video Codec\nFormat profile                           : &lt;a class=&quot;__cf_email__&quot; href=&quot;/cdn-cgi/l/email-protection&quot; data-cfemail=&quot;0e466769664e423a203e&quot;&gt;[email&amp;#160;protected]&lt;/a&gt;&lt;script cf-hash='f9e31' type=&quot;text/javascript&quot;&gt;\n/* &lt;![CDATA[ */!function(){try{var t=&quot;currentScript&quot;in document?document.currentScript:function(){for(var t=document.getElementsByTagName(&quot;script&quot;),e=t.length;e--;)if(t[e].getAttribute(&quot;cf-hash&quot;))return t[e]}();if(t&amp;&amp;t.previousSibling){var e,r,n,i,c=t.previousSibling,a=c.getAttribute(&quot;data-cfemail&quot;);if(a){for(e=&quot;&quot;,r=parseInt(a.substr(0,2),16),n=2;a.length-n;n+=2)i=parseInt(a.substr(n,2),16)^r,e+=String.fromCharCode(i);e=document.createTextNode(e),c.parentNode.replaceChild(e,c)}}}catch(u){}}();/* ]]&gt; */&lt;/script&gt;\nFormat settings, CABAC                   : Yes\nFormat settings, ReFrames                : 4 frames\nFormat settings, GOP                     : M=8, N=48\nCodec ID                                 : 27\nDuration                                 : 49mn 41s\nBit rate                                 : 7 693 Kbps\nWidth                                    : 1 280 pixels\nHeight                                   : 720 pixels\nDisplay aspect ratio                     : 16:9\nFrame rate                               : 50.000 fps\nStandard                                 : Component\nColor space                              : YUV\nChroma subsampling                       : 4:2:0\nBit depth                                : 8 bits\nScan type                                : Progressive\nBits/(Pixel*Frame)                       : 0.167\nStream size                              : 2.67 GiB (88%)\nColor primaries                          : BT.709\nTransfer characteristics                 : BT.709\nMatrix coefficients                      : BT.709\n\nAudio #1\nID                                       : 513 (0x201)\nMenu ID                                  : 1 (0x1)\nFormat                                   : AC-3\nFormat/Info                              : Audio Coding 3\nMode extension                           : CM (complete main)\nFormat settings, Endianness              : Big\nCodec ID                                 : 129\nDuration                                 : 49mn 41s\nBit rate mode                            : Constant\nBit rate                                 : 448 Kbps\nChannel(s)                               : 6 channels\nChannel positions                        : Front: L C R, Side: L R, LFE\nSampling rate                            : 48.0 KHz\nBit depth                                : 16 bits\nCompression mode                         : Lossy\nStream size                              : 159 MiB (5%)\n\nAudio #2\nID                                       : 514 (0x202)","torrent":{"xt":"urn:btih:f60a004b84e4f6a1dfe845d684313bd77f10f694","amp;dn":"Badehotellet++S01E01+-+En+sommer+ved+Vesterhavet_%28Jaws-720p-DC%29","amp;tr":["udp%3A%2F%2Ftracker.openbittorrent.com%3A80","udp%3A%2F%2Fopen.demonii.com%3A1337","udp%3A%2F%2Ftracker.coppersurfer.tk%3A6969","udp%3A%2F%2Fexodus.desync.com%3A6969"],"infoHash":"f60a004b84e4f6a1dfe845d684313bd77f10f694","infoHashBuffer":{"type":"Buffer","data":[246,10,0,75,132,228,246,161,223,232,69,214,132,49,59,215,127,16,246,148]},"announce":[],"urlList":[]}}